<svg width="1083" height="286" viewBox="0 0 1083 286" fill="none" xmlns="http://www.w3.org/2000/svg">
<g clip-path="url(#clip0)">
<path d="M22.6986 43.1712C20.7054 47.0403 19.2985 61.4616 17.8915 69.4344L16.9536 74.7104L14.2569 74.2415C11.912 73.8897 9.21532 73.6552 9.21532 76.3519C9.21532 78.8141 9.21532 83.6211 13.4362 85.1453L16.7191 86.3178L16.6018 97.3389C16.6018 100.153 16.8363 104.96 18.2433 107.539C19.064 109.064 20.5882 109.415 21.4089 109.415C22.4641 109.415 23.9883 108.946 25.278 107.305C28.4437 103.318 27.0367 99.0976 27.0367 94.525L27.5057 87.2558C33.9543 87.2558 44.0374 85.1453 49.548 81.9797L48.8445 100.505C48.61 108.008 55.1758 110.939 57.4035 110.939C62.9141 110.939 66.3142 108.829 69.5971 103.436C74.8732 94.7595 84.9563 86.3178 88.591 86.3178C93.6325 86.3178 94.1015 101.325 94.1015 102.967C94.1015 107.422 97.2672 109.533 101.488 109.767C105.123 110.002 107.702 107.422 107.702 104.725C107.702 102.263 105.943 89.8352 101.488 80.5727C99.4949 76.4691 92.5773 73.069 85.1908 75.0622C77.4526 77.1726 67.0177 86.0833 61.6243 93.5871C60.9209 93.5871 60.5691 87.1385 60.5691 77.8761L61.6243 57.4753C61.8588 51.8474 62.2106 42.116 56.5828 42.116C54.5896 42.116 53.5344 42.116 52.4791 44.5782C51.4239 47.0403 50.1342 72.7173 50.1342 73.069C43.9202 74.8277 33.7198 75.1794 29.0299 74.8277C29.9679 69.7861 31.7266 60.1719 32.899 50.4405C33.9543 42.116 24.9263 41.8815 22.6986 43.1712ZM404.687 49.5025C399.998 52.9027 399.998 68.3791 399.998 73.7725C399.998 89.4835 402.577 102.85 411.019 107.774C417.702 111.643 425.206 109.65 429.192 106.719C433.999 103.201 437.165 99.6839 437.165 97.9252C437.165 96.7527 435.992 94.8768 432.709 95.8147C429.192 96.7527 428.957 100.505 421.454 100.27C416.178 100.153 411.488 97.1044 411.839 80.3383C416.764 79.6348 432.475 76.2346 438.103 74.5932C441.385 73.6552 442.558 72.0138 442.558 70.3723C442.558 69.6689 442.558 67.4412 440.799 67.4412C440.213 67.4412 438.454 67.4412 435.054 67.6757C424.385 68.7309 422.509 68.6136 411.839 69.5516C411.839 63.4548 412.777 54.5441 411.019 51.8474C409.495 49.5025 406.212 48.4473 404.687 49.5025ZM628.999 42.7022C625.95 44.8127 626.067 49.268 626.302 55.7166L626.771 67.4412C621.26 67.7929 612.819 68.1447 608.715 68.1447C606.605 56.6545 606.018 50.7922 605.432 49.268C604.846 47.6266 603.908 46.9231 602.618 46.9231C601.328 46.9231 599.687 47.7438 599.101 49.3853C598.515 51.0267 597.577 54.7786 598.163 69.4344C595.701 70.0206 593.707 70.1378 590.425 70.1378C586.907 70.1378 584.562 71.7793 585.149 74.5932C585.735 77.1726 590.19 77.9933 592.535 78.1106C594.528 78.2278 597.811 78.2278 598.866 78.1106L599.101 80.1038C599.922 86.7868 601.446 95.3458 603.322 100.739C604.729 104.608 608.129 109.064 612.232 109.064C614.929 109.064 616.57 107.305 616.57 104.843C616.57 103.67 616.219 102.498 615.633 101.325C612.936 96.2837 611.763 92.2974 610.943 84.2074L610.356 78.1106C614.343 78.1106 624.426 77.8761 627.709 77.7588L628.647 87.373C629.819 99.0976 635.33 107.539 637.558 108.829C638.496 109.298 639.316 109.533 640.137 109.533C641.661 109.533 642.951 108.712 644.006 107.07C644.71 105.898 645.061 104.725 645.061 103.553C645.061 101.794 643.185 100.153 641.661 96.9872C637.089 87.6075 636.971 77.4071 636.971 77.1726C642.951 76.7036 653.034 75.7657 660.772 72.0138C662.062 71.4275 662.531 70.3723 662.531 69.6689C662.531 68.0274 659.952 65.917 656.551 65.917C655.262 65.917 641.661 67.0894 636.385 67.0894C635.916 61.4616 635.447 47.2748 634.978 45.5161C634.392 43.4057 633.454 41.9988 632.399 41.9988C631.461 41.9988 629.937 41.9988 628.999 42.7022ZM866.733 45.3989C865.443 46.4541 864.857 47.3921 864.857 48.4473C864.857 49.9715 865.912 51.2612 868.022 52.5509C870.953 54.5441 873.533 55.4821 875.995 55.4821C878.457 55.4821 879.747 54.5441 879.747 52.7854C879.747 50.9095 876.347 46.8059 873.416 45.2817C870.367 43.8747 869.429 43.2885 866.733 45.3989ZM796.619 72.9517C796.619 75.1794 797.44 77.5243 799.668 78.5796C801.192 79.4003 809.751 80.9245 817.372 80.9245C817.958 88.5455 818.193 103.905 818.779 107.539C819.131 110.002 820.42 112.112 822.882 112.112C824.289 112.112 825.696 111.643 827.103 110.236C829.683 107.657 829.214 104.608 829.214 101.091C829.214 92.6491 828.745 86.6695 828.745 81.628C830.738 81.3935 838.007 81.0417 845.628 79.8693C850.084 79.1658 854.07 77.8761 854.891 77.8761C855.711 77.8761 856.415 77.9933 856.767 78.2278C857.587 78.6968 858.291 81.159 858.76 85.7316C860.049 99.8011 861.808 110.119 867.788 110.119C870.953 110.119 873.181 108.712 874.471 105.898C875.995 103.084 875.174 101.443 872.947 99.2149C871.774 98.0424 870.953 95.5803 868.374 78.2278C867.084 70.4896 864.739 67.2067 861.456 66.6205C857.587 65.917 839.766 71.0758 828.276 71.0758C828.276 66.1515 827.455 51.6129 827.338 50.4405C826.752 47.6266 824.641 46.8059 823.234 46.8059C821.593 46.8059 820.889 47.3921 819.834 48.4473C816.082 51.8474 817.255 64.1583 817.02 70.8413C812.448 70.8413 807.875 70.2551 804.123 69.3171C802.364 68.8481 801.192 68.6136 800.606 68.6136C799.199 68.6136 796.619 70.0206 796.619 72.9517Z" fill="#C79607"/>
<path d="M162.033 73.7725C160.978 74.4759 137.997 81.7452 129.673 83.6211C135.183 79.5175 141.163 76.3519 150.543 74.007C152.653 73.538 163.674 72.6 162.033 73.7725ZM112.086 88.4282C109.507 92.8836 113.962 91.2421 114.9 93.4698C115.252 94.4078 115.369 95.2285 117.01 97.2217C124.045 106.015 137.294 109.415 148.432 108.829C164.143 107.891 177.04 100.739 177.04 98.7459C177.04 97.5734 175.164 96.1665 172.116 96.2837C159.922 96.6355 153.122 105.077 135.183 98.1597C131.08 96.5182 128.852 93.3526 128.969 91.3594C139.522 90.4214 172.937 84.4419 172.819 71.5448C172.819 64.8618 161.095 62.6341 154.881 63.9238C145.267 65.448 133.19 67.9102 118.769 83.0349C117.128 84.6764 113.962 85.3798 112.086 88.4282ZM274.729 43.2885C274.729 36.6054 256.439 30.3914 246.59 40.2401C234.631 52.3164 236.859 75.7657 236.39 77.9933C236.39 78.2278 234.631 78.3451 232.286 78.9313C228.417 79.8693 227.01 80.8072 226.424 84.4419C225.603 87.373 227.245 90.0697 232.638 89.7179L236.39 89.4835L236.507 99.2149C236.507 104.022 238.5 106.719 238.852 108.243C239.204 109.65 240.024 110.353 241.314 110.353C242.487 110.353 242.956 109.884 244.011 108.829C246.238 106.601 247.059 97.4562 247.411 89.4835C261.129 87.373 264.646 85.7316 268.867 85.7316C269.922 85.7316 271.798 85.9661 271.915 85.9661C277.191 85.9661 280.709 80.3383 281.061 77.4071C281.178 76.2346 279.536 75.6484 276.371 75.6484C274.729 75.6484 273.322 75.6484 272.267 75.7657C245.535 76.9381 250.108 76.9381 248.232 76.9381C248.232 76.9381 247.411 58.765 252.218 47.3921C253.039 45.3989 255.032 45.0472 258.315 45.0472C260.074 45.1644 261.246 45.6334 261.832 45.7506C262.301 45.8679 262.536 46.3369 262.653 47.0403C263.005 48.4473 264.06 48.6818 266.053 48.6818C270.039 48.6818 272.736 47.3921 274.26 44.6954C274.612 44.1092 274.729 43.6402 274.729 43.2885ZM318.87 74.8277C321.332 75.5312 322.856 77.7588 323.091 79.8693C323.091 91.5939 305.504 101.56 293.193 99.6839C290.496 99.2149 288.034 96.7527 288.034 94.1733C288.034 84.2074 302.807 70.2551 318.87 74.8277ZM277.599 96.2837C277.599 102.85 280.765 109.415 290.144 110.002C303.628 110.822 316.759 104.608 321.332 97.8079C322.739 106.015 327.311 109.298 330.008 109.298C332.001 109.298 333.994 108.36 335.753 106.132C338.567 102.498 343.609 96.0492 343.609 92.8836C343.609 91.7111 343.374 90.7732 342.788 90.0697C342.084 89.4835 340.091 89.1317 335.284 90.7732C332.939 91.5939 334.346 83.7384 334.698 79.8693C335.284 72.3655 334.698 63.8065 329.656 63.2203C326.725 62.8686 324.849 64.1583 325.435 67.5584C323.794 66.9722 321.918 65.3307 315.235 64.979C298.821 64.1583 277.599 76.7036 277.599 96.2837ZM384.266 63.5721C380.749 62.5168 369.142 60.0547 357.652 65.7997C352.727 68.2619 348.272 74.007 347.92 76.5864C347.099 82.4487 350.5 85.1453 358.238 86.904C361.755 87.7248 378.287 90.3042 380.515 92.1801C380.866 92.4146 380.866 92.6491 380.866 92.7663C380.515 97.9252 370.314 100.505 364.335 100.505C360.7 100.505 358.941 97.9252 355.189 97.9252C350.969 97.9252 347.099 100.622 347.099 105.312C347.099 109.298 350.969 110.236 355.189 110.236C364.335 110.236 383.446 109.298 390.832 98.2769C392.239 96.1665 392.943 93.2353 392.943 89.6007C392.943 86.3178 390.598 83.9729 387.901 82.6832C383.563 80.5727 378.756 79.4003 369.611 78.5796C367.618 78.3451 364.335 77.5243 364.569 76.8209C366.914 71.1931 373.597 70.7241 380.163 71.1931C385.556 71.5448 388.839 71.0758 389.425 68.1447C389.66 66.7377 387.549 64.51 384.266 63.5721ZM455.199 103.905C455.199 105.781 454.378 108.243 452.736 111.291C451.447 113.988 450.626 115.629 450.743 116.45C451.329 121.843 459.537 119.381 459.537 116.802C459.537 116.098 460.709 114.34 463.054 111.643C466.337 107.774 466.689 106.836 466.689 103.905C466.689 99.6839 464.813 97.5734 461.061 97.5734C457.192 97.5734 455.199 99.6839 455.199 103.905ZM529.714 38.9504C524.672 46.1024 523.617 95.3458 528.19 104.725C532.528 113.519 541.908 112.112 550.818 105.898C561.019 98.7459 563.129 89.8352 564.302 89.8352C567.35 89.8352 567.233 104.725 572.626 107.07C574.971 108.712 577.668 108.36 578.957 107.891C584.233 106.015 588.806 102.263 588.806 96.87C588.806 95.463 588.103 94.8768 586.696 94.8768C585.289 94.8768 582.944 95.5803 581.537 95.5803C575.792 95.463 574.854 72.6 570.867 69.6689C570.047 69.0826 568.405 67.7929 566.178 69.6689C563.715 71.662 559.26 81.159 555.156 86.3178C552.343 89.8352 544.956 97.2217 539.445 97.2217C538.273 97.2217 537.452 96.1665 537.101 94.1733C536.632 92.0629 535.459 73.6552 536.983 54.8958C537.335 51.0267 537.452 40.3573 533.7 38.7159C532.762 38.3641 531.942 38.1296 530.769 38.3641C530.183 38.4814 529.949 38.5986 529.714 38.9504ZM571.805 48.2128C571.336 50.4405 572.157 51.8474 573.681 53.8406C576.378 56.7718 577.785 57.0063 581.42 55.4821C584.702 53.7234 587.047 50.675 587.047 48.3301C587.047 44.5782 573.447 38.9504 571.805 48.2128ZM665.765 45.1644C662.482 45.1644 661.662 48.3301 661.544 51.8474C661.427 54.1924 661.31 59.7029 661.31 68.3791C661.31 91.8284 662.248 104.96 664.007 108.243C664.945 110.002 666.469 110.471 667.993 110.119C671.393 109.298 672.917 107.539 674.793 104.256C676.2 101.794 677.138 100.387 677.607 100.036C677.959 99.8011 678.193 98.8631 678.193 97.1044C678.193 95.463 677.255 93.8216 675.497 92.0629L672.917 89.4835C671.159 78.1106 671.159 68.3791 671.159 66.1515C671.159 64.6273 671.276 63.1031 671.628 61.6961C672.097 59.2339 672.448 57.1235 672.448 55.1303C672.448 50.3232 670.338 45.1644 665.765 45.1644ZM732.463 73.7725C731.408 74.4759 708.427 81.7452 700.103 83.6211C705.613 79.5175 711.593 76.3519 720.973 74.007C723.083 73.538 734.104 72.6 732.463 73.7725ZM682.516 88.4282C679.936 92.8836 684.392 91.2421 685.33 93.4698C685.682 94.4078 685.799 95.2285 687.44 97.2217C694.475 106.015 707.724 109.415 718.862 108.829C734.573 107.891 747.47 100.739 747.47 98.7459C747.47 97.5734 745.594 96.1665 742.546 96.2837C730.352 96.6355 723.552 105.077 705.613 98.1597C701.51 96.5182 699.282 93.3526 699.399 91.3594C709.952 90.4214 743.367 84.4419 743.249 71.5448C743.249 64.8618 731.525 62.6341 725.311 63.9238C715.697 65.448 703.62 67.9102 689.199 83.0349C687.557 84.6764 684.392 85.3798 682.516 88.4282ZM924.6 76.5864C925.186 77.2899 925.069 78.1106 924.365 79.283C923.779 80.221 923.545 81.3935 923.545 82.6832C923.545 82.9177 923.545 83.1522 923.662 84.2074V85.0281C923.662 88.6627 921.552 91.2421 918.972 92.4146C915.337 94.0561 911.703 95.5803 907.599 95.5803C903.027 95.5803 899.626 93.1181 899.744 89.4835C899.978 83.7384 905.137 80.3383 909.123 78.6968C911.586 77.6416 916.275 76.5864 923.193 75.5312C923.662 75.5312 923.896 75.7657 924.6 76.5864ZM884.384 136.616C884.384 141.775 897.868 148.693 902.792 150.334C911.703 153.734 919.089 151.976 925.89 144.706C937.731 130.402 934.8 121.023 935.269 103.553C935.621 88.78 936.676 81.2762 937.849 81.2762C938.2 81.2762 939.256 81.9797 940.897 83.1522C942.421 84.4419 943.711 85.1453 945.352 84.0901C946.642 83.2694 947.463 82.0969 947.463 80.4555C947.463 79.0485 946.056 76.9381 943.125 73.8897C940.194 70.7241 938.318 69.0826 937.38 69.0826C936.676 69.0826 935.269 68.6136 933.042 67.5584C928.586 65.448 920.379 66.2687 915.572 67.2067C902.206 69.7861 888.605 75.4139 888.605 88.5455C888.605 94.0561 891.888 99.0976 897.399 101.677C903.378 104.608 916.041 104.491 923.662 102.381C924.014 102.732 923.896 107.539 924.131 116.685C924.248 121.023 924.248 125.009 924.131 126.768C923.896 131.458 920.145 141.306 912.055 141.306C907.716 141.306 901.502 138.961 897.164 136.382C893.881 134.389 889.074 130.989 888.019 130.989C885.322 130.989 884.384 134.389 884.384 136.616ZM984.757 70.3723C989.916 68.9654 995.075 71.0758 994.02 72.3655C992.847 73.7725 986.75 76.9381 983.116 78.2278C977.136 80.4555 968.108 81.3935 968.108 81.0417C968.343 78.9313 976.081 72.7173 984.757 70.3723ZM949.935 92.4146C948.528 105.429 961.777 110.705 976.081 110.002C990.385 109.415 1003.99 104.491 1015.48 90.3042C1017.12 102.146 1021.46 109.298 1023.57 110.588C1025.21 111.526 1026.61 112.112 1027.79 112.112C1032.36 112.112 1035.99 98.7459 1038.46 91.5939C1042.56 79.6348 1048.77 75.8829 1051.47 75.8829C1056.51 75.8829 1062.37 80.69 1065.19 80.4555C1067.53 80.221 1066.83 78.3451 1066.48 76.8209C1065.89 74.4759 1064.95 69.4344 1057.22 66.2687C1054.99 65.3307 1052.53 64.51 1047.84 64.979C1033.77 66.5032 1029.55 79.6348 1028.49 92.0629C1028.02 92.0629 1026.85 81.9797 1026.61 74.8277C1026.5 69.6689 1027.79 64.6273 1021.92 64.979C1018.29 65.2135 1014.07 67.4412 1013.13 72.8345C1010.43 88.0765 998.71 94.4078 988.978 98.7459C977.136 103.084 959.198 102.85 963.067 90.3042C967.405 90.3042 976.667 89.3662 982.764 87.373C993.902 83.7384 1002.93 78.6968 1002.93 69.9033C1002.93 63.3376 992.964 60.7581 988.275 60.7581C980.654 60.7581 971.508 63.5721 960.487 74.8277C956.149 79.283 951.108 86.2006 949.935 92.4146Z" fill="#171B36"/>
<path d="M23.8759 184.552C21.8827 188.421 20.4757 202.842 19.0688 210.815L18.1308 216.091L15.4342 215.622C13.0892 215.27 10.3926 215.036 10.3926 217.732C10.3926 220.195 10.3926 225.002 14.6134 226.526L17.8963 227.698L17.7791 238.719C17.7791 241.533 18.0136 246.34 19.4206 248.92C20.2413 250.444 21.7655 250.796 22.5862 250.796C23.6414 250.796 25.1656 250.327 26.4553 248.685C29.6209 244.699 28.214 240.478 28.214 235.906L28.683 228.636C35.1315 228.636 45.2147 226.526 50.7253 223.36L50.0218 241.885C49.7873 249.389 56.3531 252.32 58.5808 252.32C64.0913 252.32 67.4915 250.21 70.7744 244.816C76.0505 236.14 86.1336 227.698 89.7682 227.698C94.8098 227.698 95.2788 242.706 95.2788 244.347C95.2788 248.803 98.4444 250.913 102.665 251.148C106.3 251.382 108.879 248.803 108.879 246.106C108.879 243.644 107.121 231.216 102.665 221.953C100.672 217.85 93.7546 214.45 86.3681 216.443C78.6299 218.553 68.1949 227.464 62.8016 234.968C62.0981 234.968 61.7464 228.519 61.7464 219.257L62.8016 198.856C63.0361 193.228 63.3879 183.497 57.76 183.497C55.7669 183.497 54.7116 183.497 53.6564 185.959C52.6012 188.421 51.3115 214.098 51.3115 214.45C45.0975 216.208 34.897 216.56 30.2072 216.208C31.1452 211.167 32.9039 201.552 34.0763 191.821C35.1315 183.497 26.1036 183.262 23.8759 184.552Z" fill="#171B36"/>
<path d="M415.099 190.883C410.409 194.283 410.409 209.76 410.409 215.153C410.409 230.864 412.989 244.23 421.43 249.154C428.113 253.023 435.617 251.03 439.604 248.099C444.411 244.582 447.576 241.064 447.576 239.306C447.576 238.133 446.404 236.257 443.121 237.195C439.604 238.133 439.369 241.885 431.865 241.651C426.589 241.533 421.899 238.485 422.251 221.719C427.175 221.015 442.886 217.615 448.514 215.974C451.797 215.036 452.97 213.394 452.97 211.753C452.97 211.049 452.97 208.822 451.211 208.822C450.625 208.822 448.866 208.822 445.466 209.056C434.796 210.111 432.921 209.994 422.251 210.932C422.251 204.835 423.189 195.925 421.43 193.228C419.906 190.883 416.623 189.828 415.099 190.883Z" fill="#171B36"/>
<path d="M640.473 184.083C637.425 186.193 637.542 190.649 637.777 197.097L638.246 208.822C632.735 209.173 624.293 209.525 620.19 209.525C618.079 198.035 617.493 192.173 616.907 190.649C616.321 189.007 615.383 188.304 614.093 188.304C612.803 188.304 611.162 189.124 610.576 190.766C609.989 192.407 609.051 196.159 609.638 210.815C607.175 211.401 605.182 211.518 601.899 211.518C598.382 211.518 596.037 213.16 596.623 215.974C597.21 218.553 601.665 219.374 604.01 219.491C606.003 219.608 609.286 219.608 610.341 219.491L610.576 221.484C611.396 228.167 612.92 236.726 614.796 242.12C616.203 245.989 619.603 250.444 623.707 250.444C626.404 250.444 628.045 248.685 628.045 246.223C628.045 245.051 627.693 243.878 627.107 242.706C624.411 237.664 623.238 233.678 622.417 225.588L621.831 219.491C625.818 219.491 635.901 219.257 639.184 219.139L640.122 228.754C641.294 240.478 646.805 248.92 649.032 250.21C649.97 250.679 650.791 250.913 651.612 250.913C653.136 250.913 654.426 250.092 655.481 248.451C656.184 247.278 656.536 246.106 656.536 244.934C656.536 243.175 654.66 241.533 653.136 238.368C648.563 228.988 648.446 218.788 648.446 218.553C654.426 218.084 664.509 217.146 672.247 213.394C673.537 212.808 674.006 211.753 674.006 211.049C674.006 209.408 671.426 207.297 668.026 207.297C666.736 207.297 653.136 208.47 647.86 208.47C647.391 202.842 646.922 188.655 646.453 186.897C645.867 184.786 644.929 183.379 643.873 183.379C642.935 183.379 641.411 183.379 640.473 184.083Z" fill="#171B36"/>
<path d="M866.13 186.779C864.84 187.835 864.254 188.773 864.254 189.828C864.254 191.352 865.309 192.642 867.419 193.931C870.351 195.925 872.93 196.863 875.392 196.863C877.854 196.863 879.144 195.925 879.144 194.166C879.144 192.29 875.744 188.186 872.813 186.662C869.764 185.255 868.826 184.669 866.13 186.779ZM796.017 214.332C796.017 216.56 796.837 218.905 799.065 219.96C800.589 220.781 809.148 222.305 816.769 222.305C817.355 229.926 817.59 245.285 818.176 248.92C818.528 251.382 819.818 253.492 822.28 253.492C823.687 253.492 825.093 253.023 826.5 251.617C829.08 249.037 828.611 245.989 828.611 242.471C828.611 234.03 828.142 228.05 828.142 223.008C830.135 222.774 837.404 222.422 845.025 221.25C849.481 220.546 853.467 219.257 854.288 219.257C855.109 219.257 855.812 219.374 856.164 219.608C856.984 220.077 857.688 222.539 858.157 227.112C859.447 241.182 861.205 251.499 867.185 251.499C870.351 251.499 872.578 250.092 873.868 247.278C875.392 244.465 874.571 242.823 872.344 240.595C871.171 239.423 870.351 236.961 867.771 219.608C866.481 211.87 864.137 208.587 860.854 208.001C856.985 207.297 839.163 212.456 827.673 212.456C827.673 207.532 826.852 192.993 826.735 191.821C826.149 189.007 824.038 188.186 822.631 188.186C820.99 188.186 820.286 188.773 819.231 189.828C815.479 193.228 816.652 205.539 816.417 212.222C811.845 212.222 807.272 211.636 803.52 210.698C801.762 210.229 800.589 209.994 800.003 209.994C798.596 209.994 796.017 211.401 796.017 214.332Z" fill="#171B36"/>
</g>
<defs>
<clipPath id="clip0">
<rect width="1083" height="286" fill="white"/>
</clipPath>
</defs>
</svg>
